<?xml version="1.0" encoding="utf-8"?>
<!-- Generator: Adobe Illustrator 24.2.1, SVG Export Plug-In . SVG Version: 6.00 Build 0)  -->
<svg version="1.1" id="Layer_1" xmlns="http://www.w3.org/2000/svg" xmlns:xlink="http://www.w3.org/1999/xlink" x="0px" y="0px"
	 viewBox="0 0 150 150" style="enable-background:new 0 0 150 150;" xml:space="preserve">
<style type="text/css">
	.st0{fill:#EF8023;}
	.st1{fill:#FFFFFF;}
	.st2{display:none;}
</style>
<path class="st0" d="M29,101.7c0,0,13.2-6.9,24.6-6.6s21.8,4.5,32.9,4.2s23.6,0,23.6,0s3.4,0.5,3.6,3.4c0.2,3-5.8,5.2-5.8,5.2
	s-9.1,4.9-24.1,5.8c0,0-3.8,2-2.2,5.3s6.9,4.4,6.9,4.4s3.3,0.8,8.3-1.4s13.3-5.3,13.3-5.3s9.2-5,13-8.3c3.8-3.3,11.7-12.2,11.7-12.2
	s3.8-3,6.1-1.1c2.3,1.9-2,8.3-2,8.3s-6.3,8.9-11.9,14.1c-5.6,5.2-19.6,15.2-19.6,15.2l-16.3,9.7c0,0-2,1.7-5.8,0.9
	c-3.9-0.8-12.3-2.8-12.3-2.8l-13.6-4.7c0,0-7.5-3.1-14.1-3s-12.8,3.3-12.8,3.3l-3.4,1.7V101.7z"/>
<rect x="12.4" y="98.8" class="st0" width="12.7" height="41.5"/>
<image style="display:none;overflow:visible;" width="1446" height="813" xlink:href="88AFD1D.jpg"  transform="matrix(1 0 0 1 -1522.84 -358.7911)">
</image>
<image style="display:none;overflow:visible;" width="150" height="150" xlink:href="../../Downloads/icons/New folder/new-servicing.png"  transform="matrix(0.6418 0 0 0.6418 32.36 -2.88)">
</image>
<circle class="st1" cx="18.7" cy="102.5" r="1.4"/>
<g id="Layer_2" class="st2">
</g>
<image style="display:none;overflow:visible;" width="150" height="150" xlink:href="../../Downloads/icons/New folder/new-onboarding.png"  transform="matrix(0.5549 0 0 0.5549 44.0346 5.52)">
</image>
<g id="Layer_3">
</g>
<image style="overflow:visible;" width="150" height="150" xlink:href="../../Downloads/icons/New folder/new-reports.png"  transform="matrix(0.5034 0 0 0.5034 39.7586 9.2167)">
</image>
</svg>
