<svg width="46" height="46" viewBox="0 0 46 46" fill="none" xmlns="http://www.w3.org/2000/svg">
<circle cx="23" cy="23" r="23" fill="#F24E1E"/>
<circle cx="23" cy="23" r="22" fill="white"/>
<path d="M22.6697 19.5304L22.671 19.5291L24.3986 17.8045L25.7224 16.483C25.7225 16.483 25.7225 16.4831 25.7226 16.4831C26.2986 16.9441 26.8513 17.4389 27.3776 17.9661C27.903 18.4924 28.3959 19.0449 28.8553 19.6207L28.8452 19.6307L25.8031 22.6687L25.802 22.6697L25.8028 22.6705L25.8031 22.6708L24.234 24.2368L24.2288 24.242L22.6657 25.8021L22.6649 25.8028L22.6648 25.8027L22.6642 25.8021L22.6636 25.8021L19.5342 25.7993L19.5306 25.7993L18.3631 25.7983L16.5444 25.7967C16.5221 25.7691 16.4999 25.7414 16.4777 25.7136L17.7932 24.4001L19.5306 22.6655L19.5309 22.6651L19.5318 22.6642L19.5311 22.6635L16.5579 19.6846L16.4845 19.611C16.9445 19.0364 17.438 18.4851 17.9638 17.96C17.9645 17.9593 17.9653 17.9586 17.966 17.9578C18.4929 17.4318 19.0462 16.9383 19.6226 16.4786L22.6697 19.5304ZM22.6697 19.5304L20.9928 17.8509L22.6697 19.5304ZM33.1824 30.976L32.5992 31.5586M32.5992 31.5586L32.0729 32.0838L32.5992 31.5586ZM32.5992 31.5586L33.1824 30.9764C33.2027 31.3455 33.2127 31.716 33.2124 32.0875C33.212 32.4591 33.2014 32.8296 33.1805 33.1986C33.1804 33.1986 33.1803 33.1986 33.1802 33.1986C32.8116 33.2189 32.4421 33.2289 32.0722 33.2287C32.0711 33.2287 32.07 33.2287 32.0689 33.2287C31.6982 33.2284 31.3279 33.2178 30.9586 33.1969L32.0699 32.0865L30.9576 33.1968C30.9577 33.1968 30.9577 33.1968 30.9577 33.1968L30.5157 33.638M30.5157 33.638L30.5097 33.644L30.5157 33.638ZM28.7317 25.8089C28.296 26.3451 27.832 26.8594 27.3411 27.3494C27.3389 27.3516 27.3367 27.3538 27.3345 27.356C26.8115 27.8776 26.261 28.3687 25.6859 28.8274L25.6443 28.7857L22.6657 25.8036L25.789 25.8063L25.8008 25.8063L26.8802 25.8073L28.7317 25.8089Z" fill="#FF0000" stroke="#FF0000" stroke-width="44.3648"/>
</svg>
