<?xml version="1.0" encoding="utf-8"?>
<!-- Generator: Adobe Illustrator 24.2.1, SVG Export Plug-In . SVG Version: 6.00 Build 0)  -->
<svg version="1.1" xmlns="http://www.w3.org/2000/svg" xmlns:xlink="http://www.w3.org/1999/xlink" x="0px" y="0px"
	 viewBox="0 0 50 50" style="enable-background:new 0 0 50 50;" xml:space="preserve">
<style type="text/css">
	.st0{fill:#333333;}
</style>
<g id="Layer_1">
	<path class="st0" d="M20.44,32.72c-4.16-0.94-14.17,2.25-13.91-9.84c0.01-0.52,0.07-1.04,0.18-1.55c0.43-2,1.92-6.36,6.77-6.88
		c0.8-0.09,2.11-0.4,2.88-1.05c0.76-0.65,1.23-1.58,1.18-2.16c-0.05-0.58,2.48-6.31,8.65-6.14s8.54,5.66,8.84,7.27
		c0,0,0.13,0.9,0.83,1.47c0.42,0.34,1.11,0.53,1.6,0.57c1.02,0.07,2.04,0.28,2.97,0.72c1.64,0.78,3.82,2.38,4.87,5.56
		c0.22,0.66,0.3,1.35,0.32,2.04c0.05,1.65-0.1,4.58-1.65,6.31c-2.25,2.52-4.77,3.58-5.61,3.62c-0.84,0.03-6.7,0.24-6.7,0.24
		s-1.82,1.17-0.07,2.68h5.92c0.88,0,1.75-0.13,2.58-0.41c1.78-0.59,4.73-1.89,6.05-4.25c1.95-3.48,3.08-5.49,2.16-9.85
		c-0.76-3.6-3-7.01-7.34-8.8c-1.76-0.72-3.3-1.93-4.23-3.6c-1.54-2.78-4.76-6.69-10.63-6.61c-5.62,0.08-8.69,3.55-10.22,6.19
		c-0.98,1.69-2.44,3.05-4.25,3.75c-3.13,1.21-7.7,4.06-8.27,10.56c-0.63,7.19,4.36,10.64,7.21,12.01c1.04,0.5,2.16,0.76,3.31,0.8
		l6.39,0.21C20.28,35.57,22.78,33.25,20.44,32.72z"/>
</g>
<g id="Layer_2">
	<path class="st0" d="M27.91,44.22l5.8-5.8c0,0,0,0,0,0c0.05,0,2.65-0.07,2.2,2.39c-1.94,1.84-8.55,8.55-8.55,8.55
		s-1.26,0.99-2.75,0c-1.48-0.99-8.39-8.39-8.39-8.39s-1.37-3.26,2.34-2.34c0,0,0,0,0.01,0l5.55,5.55c0.01,0.01,0.02,0,0.02-0.01
		l0-21.18c0,0,0,0,0,0c0.01-0.02,1.57-3.68,3.5,0c0.04,3.74,0,21.33,0,21.33L27.91,44.22z"/>
</g>
</svg>
