<?xml version="1.0" encoding="utf-8"?>
<!-- Generator: Adobe Illustrator 24.2.1, SVG Export Plug-In . SVG Version: 6.00 Build 0)  -->
<svg version="1.1" xmlns="http://www.w3.org/2000/svg" xmlns:xlink="http://www.w3.org/1999/xlink" x="0px" y="0px"
	 viewBox="0 0 50 50" style="enable-background:new 0 0 50 50;" xml:space="preserve">
<style type="text/css">
	.st0{fill:#333333;}
</style>
<g id="Layer_1">
	<path class="st0" d="M18.77,34.03C14.17,33.01,3.11,36.5,3.4,23.24c0.01-0.57,0.08-1.14,0.2-1.7c0.47-2.2,2.12-6.97,7.49-7.55
		c0.89-0.09,2.34-0.44,3.18-1.15c0.84-0.71,1.36-1.73,1.3-2.37c-0.05-0.64,2.74-6.92,9.57-6.73s9.45,6.2,9.77,7.97
		c0,0,0.14,0.99,0.92,1.61c0.46,0.37,1.22,0.59,1.77,0.62c1.13,0.08,2.25,0.3,3.28,0.78c1.81,0.85,4.22,2.61,5.38,6.09
		c0.24,0.72,0.33,1.48,0.36,2.24c0.06,1.81-0.11,5.02-1.82,6.92c-2.48,2.76-5.27,3.93-6.2,3.96s-7.41,0.27-7.41,0.27
		s-2.01,1.28-0.08,2.94h6.55c0.97,0,1.93-0.14,2.85-0.45c1.96-0.65,5.23-2.08,6.69-4.65c2.16-3.81,3.4-6.02,2.39-10.8
		c-0.83-3.95-3.31-7.69-8.11-9.65c-1.94-0.79-3.65-2.12-4.67-3.95c-1.71-3.04-5.26-7.33-11.75-7.24c-6.21,0.09-9.61,3.9-11.3,6.79
		c-1.08,1.85-2.7,3.35-4.69,4.11c-3.46,1.32-8.52,4.46-9.14,11.58c-0.69,7.89,4.82,11.67,7.97,13.17c1.15,0.55,2.39,0.83,3.65,0.88
		l7.06,0.23C18.58,37.16,21.35,34.61,18.77,34.03z"/>
</g>
<g id="Layer_2">
	<path class="st0" d="M23.44,20.77l-5.8,5.8c0,0,0,0,0,0c-0.05,0-2.65,0.07-2.2-2.39c1.94-1.84,8.55-8.55,8.55-8.55
		s1.26-0.99,2.74,0c1.49,0.99,8.39,8.39,8.39,8.39s1.37,3.26-2.34,2.34c0,0,0,0-0.01,0l-5.55-5.55c-0.01-0.01-0.02,0-0.02,0.01
		v21.18c0,0,0,0,0,0c-0.01,0.02-1.57,3.68-3.5,0c-0.05-3.74,0-21.33,0-21.33L23.44,20.77z"/>
</g>
</svg>
